<mxfile host="app.diagrams.net" agent="Mozilla/5.0 (Windows NT 10.0; Win64; x64) AppleWebKit/537.36 (KHTML, like Gecko) Chrome/127.0.0.0 Safari/537.36" version="24.7.7">
  <diagram name="Page-1" id="-gVoplBmA9nL3vkMu_nM">
    <mxGraphModel dx="732" dy="275" grid="1" gridSize="10" guides="1" tooltips="1" connect="1" arrows="1" fold="1" page="1" pageScale="1" pageWidth="850" pageHeight="1100" math="0" shadow="0">
      <root>
        <mxCell id="0" />
        <mxCell id="1" parent="0" />
        <mxCell id="97rcbqMiz11tVx-QcPhm-1" value="" style="shape=or;whiteSpace=wrap;html=1;" vertex="1" parent="1">
          <mxGeometry x="560" y="80" width="30" height="40" as="geometry" />
        </mxCell>
        <mxCell id="97rcbqMiz11tVx-QcPhm-2" value="" style="group" vertex="1" connectable="0" parent="1">
          <mxGeometry x="560" y="160" width="40" height="40" as="geometry" />
        </mxCell>
        <mxCell id="97rcbqMiz11tVx-QcPhm-3" value="" style="shape=or;whiteSpace=wrap;html=1;" vertex="1" parent="97rcbqMiz11tVx-QcPhm-2">
          <mxGeometry width="30" height="40" as="geometry" />
        </mxCell>
        <mxCell id="97rcbqMiz11tVx-QcPhm-4" value="" style="ellipse;whiteSpace=wrap;html=1;aspect=fixed;" vertex="1" parent="97rcbqMiz11tVx-QcPhm-2">
          <mxGeometry x="30" y="15" width="10" height="10" as="geometry" />
        </mxCell>
        <mxCell id="97rcbqMiz11tVx-QcPhm-5" value="" style="shape=xor;whiteSpace=wrap;html=1;" vertex="1" parent="1">
          <mxGeometry x="640" y="80" width="30" height="40" as="geometry" />
        </mxCell>
        <mxCell id="97rcbqMiz11tVx-QcPhm-6" value="" style="ellipse;whiteSpace=wrap;html=1;aspect=fixed;" vertex="1" parent="1">
          <mxGeometry x="400" y="170" width="10" height="10" as="geometry" />
        </mxCell>
        <mxCell id="97rcbqMiz11tVx-QcPhm-7" value="" style="group" vertex="1" connectable="0" parent="1">
          <mxGeometry x="640" y="160" width="40" height="40" as="geometry" />
        </mxCell>
        <mxCell id="97rcbqMiz11tVx-QcPhm-8" value="" style="shape=xor;whiteSpace=wrap;html=1;" vertex="1" parent="97rcbqMiz11tVx-QcPhm-7">
          <mxGeometry width="30" height="40" as="geometry" />
        </mxCell>
        <mxCell id="97rcbqMiz11tVx-QcPhm-9" value="" style="ellipse;whiteSpace=wrap;html=1;aspect=fixed;" vertex="1" parent="97rcbqMiz11tVx-QcPhm-7">
          <mxGeometry x="30" y="15" width="10" height="10" as="geometry" />
        </mxCell>
        <mxCell id="97rcbqMiz11tVx-QcPhm-10" value="" style="verticalLabelPosition=bottom;shadow=0;dashed=0;align=center;html=1;verticalAlign=top;shape=mxgraph.electrical.logic_gates.logic_gate;operation=xor;" vertex="1" parent="1">
          <mxGeometry x="715" y="80" width="45" height="40" as="geometry" />
        </mxCell>
        <mxCell id="97rcbqMiz11tVx-QcPhm-11" value="" style="group" vertex="1" connectable="0" parent="1">
          <mxGeometry x="715" y="160" width="45" height="40" as="geometry" />
        </mxCell>
        <mxCell id="97rcbqMiz11tVx-QcPhm-12" value="" style="verticalLabelPosition=bottom;shadow=0;dashed=0;align=center;html=1;verticalAlign=top;shape=mxgraph.electrical.logic_gates.logic_gate;operation=xor;" vertex="1" parent="97rcbqMiz11tVx-QcPhm-11">
          <mxGeometry width="45" height="40" as="geometry" />
        </mxCell>
        <mxCell id="97rcbqMiz11tVx-QcPhm-13" value="" style="ellipse;whiteSpace=wrap;html=1;aspect=fixed;" vertex="1" parent="97rcbqMiz11tVx-QcPhm-11">
          <mxGeometry x="35" y="15" width="10" height="10" as="geometry" />
        </mxCell>
        <mxCell id="97rcbqMiz11tVx-QcPhm-14" value="" style="triangle;whiteSpace=wrap;html=1;" vertex="1" parent="1">
          <mxGeometry x="800" y="80" width="30" height="40" as="geometry" />
        </mxCell>
        <mxCell id="97rcbqMiz11tVx-QcPhm-15" value="" style="group" vertex="1" connectable="0" parent="1">
          <mxGeometry x="800" y="160" width="40" height="40" as="geometry" />
        </mxCell>
        <mxCell id="97rcbqMiz11tVx-QcPhm-16" value="" style="triangle;whiteSpace=wrap;html=1;" vertex="1" parent="97rcbqMiz11tVx-QcPhm-15">
          <mxGeometry width="30" height="40" as="geometry" />
        </mxCell>
        <mxCell id="97rcbqMiz11tVx-QcPhm-17" style="edgeStyle=none;rounded=0;orthogonalLoop=1;jettySize=auto;html=1;exitX=0.5;exitY=0;exitDx=0;exitDy=0;" edge="1" parent="97rcbqMiz11tVx-QcPhm-15" source="97rcbqMiz11tVx-QcPhm-16" target="97rcbqMiz11tVx-QcPhm-16">
          <mxGeometry relative="1" as="geometry" />
        </mxCell>
        <mxCell id="97rcbqMiz11tVx-QcPhm-18" value="" style="ellipse;whiteSpace=wrap;html=1;aspect=fixed;" vertex="1" parent="97rcbqMiz11tVx-QcPhm-15">
          <mxGeometry x="30" y="15" width="10" height="10" as="geometry" />
        </mxCell>
        <mxCell id="97rcbqMiz11tVx-QcPhm-19" value="" style="ellipse;shape=cloud;whiteSpace=wrap;html=1;" vertex="1" parent="1">
          <mxGeometry x="480" y="790" width="120" height="80" as="geometry" />
        </mxCell>
        <mxCell id="97rcbqMiz11tVx-QcPhm-20" value="" style="group" vertex="1" connectable="0" parent="1">
          <mxGeometry x="120.5" y="30" width="60" height="90" as="geometry" />
        </mxCell>
        <mxCell id="97rcbqMiz11tVx-QcPhm-21" value="" style="rounded=0;whiteSpace=wrap;html=1;" vertex="1" parent="97rcbqMiz11tVx-QcPhm-20">
          <mxGeometry y="10" width="60" height="80" as="geometry" />
        </mxCell>
        <mxCell id="97rcbqMiz11tVx-QcPhm-22" value="" style="triangle;whiteSpace=wrap;html=1;rotation=0;" vertex="1" parent="97rcbqMiz11tVx-QcPhm-20">
          <mxGeometry y="60" width="15" height="20" as="geometry" />
        </mxCell>
        <mxCell id="97rcbqMiz11tVx-QcPhm-23" value="" style="ellipse;whiteSpace=wrap;html=1;aspect=fixed;" vertex="1" parent="97rcbqMiz11tVx-QcPhm-20">
          <mxGeometry x="25" width="10" height="10" as="geometry" />
        </mxCell>
        <mxCell id="97rcbqMiz11tVx-QcPhm-24" value="S" style="text;html=1;align=center;verticalAlign=middle;whiteSpace=wrap;rounded=0;" vertex="1" parent="97rcbqMiz11tVx-QcPhm-20">
          <mxGeometry y="10" width="60" height="20" as="geometry" />
        </mxCell>
        <mxCell id="97rcbqMiz11tVx-QcPhm-25" value="" style="group" vertex="1" connectable="0" parent="1">
          <mxGeometry x="240" y="40" width="60" height="80" as="geometry" />
        </mxCell>
        <mxCell id="97rcbqMiz11tVx-QcPhm-26" value="" style="rounded=0;whiteSpace=wrap;html=1;" vertex="1" parent="97rcbqMiz11tVx-QcPhm-25">
          <mxGeometry width="60" height="80" as="geometry" />
        </mxCell>
        <mxCell id="97rcbqMiz11tVx-QcPhm-27" value="" style="triangle;whiteSpace=wrap;html=1;rotation=0;" vertex="1" parent="97rcbqMiz11tVx-QcPhm-25">
          <mxGeometry y="50" width="15" height="20" as="geometry" />
        </mxCell>
        <mxCell id="97rcbqMiz11tVx-QcPhm-28" value="" style="group" vertex="1" connectable="0" parent="1">
          <mxGeometry x="360" y="40" width="60" height="90" as="geometry" />
        </mxCell>
        <mxCell id="97rcbqMiz11tVx-QcPhm-29" value="" style="rounded=0;whiteSpace=wrap;html=1;" vertex="1" parent="97rcbqMiz11tVx-QcPhm-28">
          <mxGeometry width="60" height="80" as="geometry" />
        </mxCell>
        <mxCell id="97rcbqMiz11tVx-QcPhm-30" value="" style="triangle;whiteSpace=wrap;html=1;rotation=0;" vertex="1" parent="97rcbqMiz11tVx-QcPhm-28">
          <mxGeometry y="50" width="15" height="20" as="geometry" />
        </mxCell>
        <mxCell id="97rcbqMiz11tVx-QcPhm-31" value="" style="ellipse;whiteSpace=wrap;html=1;aspect=fixed;" vertex="1" parent="97rcbqMiz11tVx-QcPhm-28">
          <mxGeometry x="25" y="80" width="10" height="10" as="geometry" />
        </mxCell>
        <mxCell id="97rcbqMiz11tVx-QcPhm-32" value="R" style="text;html=1;align=center;verticalAlign=middle;whiteSpace=wrap;rounded=0;" vertex="1" parent="97rcbqMiz11tVx-QcPhm-28">
          <mxGeometry y="60" width="60" height="20" as="geometry" />
        </mxCell>
        <mxCell id="97rcbqMiz11tVx-QcPhm-33" value="" style="group" vertex="1" connectable="0" parent="1">
          <mxGeometry x="685" y="800" width="60" height="90" as="geometry" />
        </mxCell>
        <mxCell id="97rcbqMiz11tVx-QcPhm-34" value="" style="rounded=0;whiteSpace=wrap;html=1;" vertex="1" parent="97rcbqMiz11tVx-QcPhm-33">
          <mxGeometry y="10" width="60" height="80" as="geometry" />
        </mxCell>
        <mxCell id="97rcbqMiz11tVx-QcPhm-35" value="" style="triangle;whiteSpace=wrap;html=1;rotation=0;" vertex="1" parent="97rcbqMiz11tVx-QcPhm-33">
          <mxGeometry y="60" width="15" height="20" as="geometry" />
        </mxCell>
        <mxCell id="97rcbqMiz11tVx-QcPhm-36" value="" style="ellipse;whiteSpace=wrap;html=1;aspect=fixed;" vertex="1" parent="97rcbqMiz11tVx-QcPhm-33">
          <mxGeometry x="25" width="10" height="10" as="geometry" />
        </mxCell>
        <mxCell id="97rcbqMiz11tVx-QcPhm-37" value="S" style="text;html=1;align=center;verticalAlign=middle;whiteSpace=wrap;rounded=0;" vertex="1" parent="97rcbqMiz11tVx-QcPhm-33">
          <mxGeometry y="10" width="60" height="20" as="geometry" />
        </mxCell>
        <mxCell id="97rcbqMiz11tVx-QcPhm-38" style="edgeStyle=orthogonalEdgeStyle;shape=connector;rounded=0;orthogonalLoop=1;jettySize=auto;html=1;strokeColor=default;align=center;verticalAlign=middle;fontFamily=Helvetica;fontSize=11;fontColor=default;labelBackgroundColor=default;endArrow=none;endFill=0;exitX=0;exitY=0.25;exitDx=0;exitDy=0;" edge="1" parent="1" source="97rcbqMiz11tVx-QcPhm-34" target="97rcbqMiz11tVx-QcPhm-19">
          <mxGeometry relative="1" as="geometry" />
        </mxCell>
        <mxCell id="97rcbqMiz11tVx-QcPhm-39" style="edgeStyle=orthogonalEdgeStyle;shape=connector;rounded=0;orthogonalLoop=1;jettySize=auto;html=1;entryX=1;entryY=0.25;entryDx=0;entryDy=0;strokeColor=default;align=center;verticalAlign=middle;fontFamily=Helvetica;fontSize=11;fontColor=default;labelBackgroundColor=default;endArrow=none;endFill=0;exitX=0;exitY=0.25;exitDx=0;exitDy=0;exitPerimeter=0;" edge="1" parent="1" source="97rcbqMiz11tVx-QcPhm-41" target="97rcbqMiz11tVx-QcPhm-49">
          <mxGeometry relative="1" as="geometry" />
        </mxCell>
        <mxCell id="97rcbqMiz11tVx-QcPhm-40" style="edgeStyle=orthogonalEdgeStyle;shape=connector;rounded=0;orthogonalLoop=1;jettySize=auto;html=1;entryX=1;entryY=0.25;entryDx=0;entryDy=0;strokeColor=default;align=center;verticalAlign=middle;fontFamily=Helvetica;fontSize=11;fontColor=default;labelBackgroundColor=default;endArrow=none;endFill=0;" edge="1" parent="1" source="97rcbqMiz11tVx-QcPhm-41" target="97rcbqMiz11tVx-QcPhm-60">
          <mxGeometry relative="1" as="geometry">
            <Array as="points">
              <mxPoint x="355" y="490" />
              <mxPoint x="355" y="540" />
            </Array>
          </mxGeometry>
        </mxCell>
        <mxCell id="97rcbqMiz11tVx-QcPhm-41" value="" style="shape=or;whiteSpace=wrap;html=1;" vertex="1" parent="1">
          <mxGeometry x="430" y="470" width="30" height="40" as="geometry" />
        </mxCell>
        <mxCell id="97rcbqMiz11tVx-QcPhm-42" value="" style="group" vertex="1" connectable="0" parent="1">
          <mxGeometry x="130" y="310" width="280" height="120" as="geometry" />
        </mxCell>
        <mxCell id="97rcbqMiz11tVx-QcPhm-43" value="" style="group" vertex="1" connectable="0" parent="97rcbqMiz11tVx-QcPhm-42">
          <mxGeometry y="30" width="149.5" height="90" as="geometry" />
        </mxCell>
        <mxCell id="97rcbqMiz11tVx-QcPhm-44" style="edgeStyle=orthogonalEdgeStyle;rounded=0;orthogonalLoop=1;jettySize=auto;html=1;exitX=0;exitY=0.25;exitDx=0;exitDy=0;endArrow=none;endFill=0;" edge="1" parent="97rcbqMiz11tVx-QcPhm-43" source="97rcbqMiz11tVx-QcPhm-45">
          <mxGeometry relative="1" as="geometry">
            <mxPoint x="9.5" y="9.999999999999943" as="targetPoint" />
          </mxGeometry>
        </mxCell>
        <mxCell id="97rcbqMiz11tVx-QcPhm-45" value="" style="rounded=0;whiteSpace=wrap;html=1;" vertex="1" parent="97rcbqMiz11tVx-QcPhm-43">
          <mxGeometry x="29.5" width="30" height="80" as="geometry" />
        </mxCell>
        <mxCell id="97rcbqMiz11tVx-QcPhm-46" value="" style="triangle;whiteSpace=wrap;html=1;rotation=0;" vertex="1" parent="97rcbqMiz11tVx-QcPhm-43">
          <mxGeometry x="29.5" y="50" width="15" height="20" as="geometry" />
        </mxCell>
        <mxCell id="97rcbqMiz11tVx-QcPhm-47" value="" style="rounded=0;whiteSpace=wrap;html=1;" vertex="1" parent="97rcbqMiz11tVx-QcPhm-43">
          <mxGeometry x="59.5" width="30" height="80" as="geometry" />
        </mxCell>
        <mxCell id="97rcbqMiz11tVx-QcPhm-48" value="" style="rounded=0;whiteSpace=wrap;html=1;" vertex="1" parent="97rcbqMiz11tVx-QcPhm-43">
          <mxGeometry x="89.5" width="30" height="80" as="geometry" />
        </mxCell>
        <mxCell id="97rcbqMiz11tVx-QcPhm-49" value="" style="rounded=0;whiteSpace=wrap;html=1;" vertex="1" parent="97rcbqMiz11tVx-QcPhm-43">
          <mxGeometry x="119.5" width="30" height="80" as="geometry" />
        </mxCell>
        <mxCell id="97rcbqMiz11tVx-QcPhm-50" value="" style="edgeStyle=orthogonalEdgeStyle;orthogonalLoop=1;jettySize=auto;html=1;rounded=0;endArrow=none;endFill=0;" edge="1" parent="97rcbqMiz11tVx-QcPhm-43">
          <mxGeometry width="80" relative="1" as="geometry">
            <mxPoint y="10" as="sourcePoint" />
            <mxPoint x="20" y="10" as="targetPoint" />
            <Array as="points">
              <mxPoint x="20" y="10" />
              <mxPoint x="20" y="10" />
            </Array>
          </mxGeometry>
        </mxCell>
        <mxCell id="97rcbqMiz11tVx-QcPhm-51" value="" style="ellipse;whiteSpace=wrap;html=1;aspect=fixed;" vertex="1" parent="97rcbqMiz11tVx-QcPhm-43">
          <mxGeometry x="79.5" y="80" width="10" height="10" as="geometry" />
        </mxCell>
        <mxCell id="97rcbqMiz11tVx-QcPhm-53" value="" style="group" vertex="1" connectable="0" parent="1">
          <mxGeometry x="130" y="450" width="230" height="120" as="geometry" />
        </mxCell>
        <mxCell id="97rcbqMiz11tVx-QcPhm-54" value="" style="group" vertex="1" connectable="0" parent="97rcbqMiz11tVx-QcPhm-53">
          <mxGeometry y="30" width="149.5" height="90" as="geometry" />
        </mxCell>
        <mxCell id="97rcbqMiz11tVx-QcPhm-55" style="edgeStyle=orthogonalEdgeStyle;rounded=0;orthogonalLoop=1;jettySize=auto;html=1;exitX=0;exitY=0.25;exitDx=0;exitDy=0;endArrow=none;endFill=0;" edge="1" parent="97rcbqMiz11tVx-QcPhm-54" source="97rcbqMiz11tVx-QcPhm-56">
          <mxGeometry relative="1" as="geometry">
            <mxPoint x="9.5" y="9.999999999999943" as="targetPoint" />
          </mxGeometry>
        </mxCell>
        <mxCell id="97rcbqMiz11tVx-QcPhm-56" value="" style="rounded=0;whiteSpace=wrap;html=1;" vertex="1" parent="97rcbqMiz11tVx-QcPhm-54">
          <mxGeometry x="29.5" width="30" height="80" as="geometry" />
        </mxCell>
        <mxCell id="97rcbqMiz11tVx-QcPhm-57" value="" style="triangle;whiteSpace=wrap;html=1;rotation=0;" vertex="1" parent="97rcbqMiz11tVx-QcPhm-54">
          <mxGeometry x="29.5" y="50" width="15" height="20" as="geometry" />
        </mxCell>
        <mxCell id="97rcbqMiz11tVx-QcPhm-58" value="" style="rounded=0;whiteSpace=wrap;html=1;" vertex="1" parent="97rcbqMiz11tVx-QcPhm-54">
          <mxGeometry x="59.5" width="30" height="80" as="geometry" />
        </mxCell>
        <mxCell id="97rcbqMiz11tVx-QcPhm-59" value="" style="rounded=0;whiteSpace=wrap;html=1;" vertex="1" parent="97rcbqMiz11tVx-QcPhm-54">
          <mxGeometry x="89.5" width="30" height="80" as="geometry" />
        </mxCell>
        <mxCell id="97rcbqMiz11tVx-QcPhm-60" value="" style="rounded=0;whiteSpace=wrap;html=1;" vertex="1" parent="97rcbqMiz11tVx-QcPhm-54">
          <mxGeometry x="119.5" width="30" height="80" as="geometry" />
        </mxCell>
        <mxCell id="97rcbqMiz11tVx-QcPhm-61" value="" style="edgeStyle=orthogonalEdgeStyle;orthogonalLoop=1;jettySize=auto;html=1;rounded=0;endArrow=none;endFill=0;" edge="1" parent="97rcbqMiz11tVx-QcPhm-54">
          <mxGeometry width="80" relative="1" as="geometry">
            <mxPoint y="10" as="sourcePoint" />
            <mxPoint x="20" y="10" as="targetPoint" />
            <Array as="points">
              <mxPoint x="20" y="10" />
              <mxPoint x="20" y="10" />
            </Array>
          </mxGeometry>
        </mxCell>
        <mxCell id="97rcbqMiz11tVx-QcPhm-62" value="" style="ellipse;whiteSpace=wrap;html=1;aspect=fixed;" vertex="1" parent="97rcbqMiz11tVx-QcPhm-54">
          <mxGeometry x="79.5" y="80" width="10" height="10" as="geometry" />
        </mxCell>
        <mxCell id="97rcbqMiz11tVx-QcPhm-65" style="edgeStyle=orthogonalEdgeStyle;shape=connector;rounded=0;orthogonalLoop=1;jettySize=auto;html=1;entryX=0;entryY=0.75;entryDx=0;entryDy=0;entryPerimeter=0;strokeColor=default;align=center;verticalAlign=middle;fontFamily=Helvetica;fontSize=11;fontColor=default;labelBackgroundColor=default;endArrow=none;endFill=0;exitX=1;exitY=0.25;exitDx=0;exitDy=0;" edge="1" parent="1" source="97rcbqMiz11tVx-QcPhm-69" target="97rcbqMiz11tVx-QcPhm-41">
          <mxGeometry relative="1" as="geometry">
            <Array as="points">
              <mxPoint x="370" y="660" />
              <mxPoint x="370" y="500" />
            </Array>
          </mxGeometry>
        </mxCell>
        <mxCell id="97rcbqMiz11tVx-QcPhm-73" value="" style="edgeStyle=orthogonalEdgeStyle;rounded=0;orthogonalLoop=1;jettySize=auto;html=1;exitX=0;exitY=0.2;exitDx=0;exitDy=0;exitPerimeter=0;" edge="1" parent="1" source="97rcbqMiz11tVx-QcPhm-66" target="97rcbqMiz11tVx-QcPhm-72">
          <mxGeometry relative="1" as="geometry" />
        </mxCell>
        <mxCell id="97rcbqMiz11tVx-QcPhm-66" value="AN4" style="shape=or;whiteSpace=wrap;html=1;points=[[0,0.2,0,0,0],[0,0.4,0,0,0],[0,0.6,0,0,0],[0,0.8,0,0,0],[0.7,0.1,0,0,0],[0.7,0.9,0,0,0],[1,0.5,0,0,0]];" vertex="1" parent="1">
          <mxGeometry x="560" width="30" height="40" as="geometry" />
        </mxCell>
        <mxCell id="97rcbqMiz11tVx-QcPhm-68" value="" style="group" vertex="1" connectable="0" parent="1">
          <mxGeometry x="160" y="640" width="60" height="80" as="geometry" />
        </mxCell>
        <mxCell id="97rcbqMiz11tVx-QcPhm-69" value="dff_noscan" style="rounded=0;whiteSpace=wrap;html=1;" vertex="1" parent="97rcbqMiz11tVx-QcPhm-68">
          <mxGeometry width="60" height="80" as="geometry" />
        </mxCell>
        <mxCell id="97rcbqMiz11tVx-QcPhm-70" value="" style="triangle;whiteSpace=wrap;html=1;rotation=0;" vertex="1" parent="97rcbqMiz11tVx-QcPhm-68">
          <mxGeometry y="50" width="15" height="20" as="geometry" />
        </mxCell>
        <mxCell id="97rcbqMiz11tVx-QcPhm-71" value="" style="edgeStyle=orthogonalEdgeStyle;shape=connector;rounded=0;orthogonalLoop=1;jettySize=auto;html=1;strokeColor=default;align=center;verticalAlign=middle;fontFamily=Helvetica;fontSize=11;fontColor=default;labelBackgroundColor=default;endArrow=none;endFill=0;exitX=0;exitY=0.25;exitDx=0;exitDy=0;" edge="1" parent="1" source="97rcbqMiz11tVx-QcPhm-69">
          <mxGeometry relative="1" as="geometry">
            <mxPoint x="120.5" y="660" as="targetPoint" />
          </mxGeometry>
        </mxCell>
        <mxCell id="97rcbqMiz11tVx-QcPhm-72" value="" style="shape=waypoint;sketch=0;size=6;pointerEvents=1;points=[];fillColor=default;resizable=0;rotatable=0;perimeter=centerPerimeter;snapToPoint=1;" vertex="1" parent="1">
          <mxGeometry x="455" y="10" width="20" height="20" as="geometry" />
        </mxCell>
      </root>
    </mxGraphModel>
  </diagram>
</mxfile>
